<svg xmlns:dc="http://purl.org/dc/elements/1.1/" xmlns:cc="http://creativecommons.org/ns#" xmlns:rdf="http://www.w3.org/1999/02/22-rdf-syntax-ns#" xmlns:svg="http://www.w3.org/2000/svg" xmlns="http://www.w3.org/2000/svg" viewBox="0 0 256 256" fill="none"><metadata><rdf:RDF><cc:Work><dc:format>image/svg+xml</dc:format><dc:type rdf:resource="http://purl.org/dc/dcmitype/StillImage"/><dc:title>Croodles - Doodle your face</dc:title><dc:creator><cc:Agent><dc:title>vijay verma</dc:title></cc:Agent></dc:creator><dc:source>https://www.figma.com/community/file/966199982810283152</dc:source><cc:license rdf:resource="https://creativecommons.org/licenses/by/4.0/"/></cc:Work><cc:License rdf:about="https://creativecommons.org/licenses/by/4.0/"><cc:permits rdf:resource="https://creativecommons.org/ns#Reproduction"/><cc:permits rdf:resource="https://creativecommons.org/ns#Distribution"/><cc:permits rdf:resource="https://creativecommons.org/ns#DerivativeWorks"/><cc:requires rdf:resource="https://creativecommons.org/ns#Notice"/><cc:requires rdf:resource="https://creativecommons.org/ns#Attribution"/></cc:License></rdf:RDF></metadata><mask id="avatarsRadiusMask"><rect width="256" height="256" rx="0" ry="0" x="0" y="0" fill="#fff"/></mask><g mask="url(#avatarsRadiusMask)"><g><path d="M73.714 93.458c1.565-7.324 4.064-12.072 7.06-16.638.035-.112.083-.221.145-.327 2.925-4.944 8.893-9.453 16.362-13.028 7.515-3.597 16.736-6.34 26.408-7.637 19.003-2.551 40.181.431 53.487 14.053.237.06.462.182.652.364 7.783 7.47 9.482 18.453 9.188 30.282-.011.432-.024.867-.04 1.303 1.487.307 3.343 1.254 4.775 3.168 1.834 2.45 2.853 6.305 1.862 12.066-.43 2.501-.923 4.09-1.567 5.504-.384.843-.847 1.662-1.343 2.538-.277.491-.564.999-.853 1.54-.707 1.32-1.51 2.806-2.6 3.714-.594.494-1.316.86-2.183.941-.293.027-.585.02-.877-.017-.2 2.146-.371 4.277-.496 6.385-2.187 36.958-4.655 59.814-22.109 79.198-16.882 18.747-43.576 13.371-56.954.058-10.756-10.704-28.535-32.965-32.01-83.46-1.903.338-3.712-.901-5.12-3.008-1.543-2.309-2.958-6.09-4.033-11.786-1.032-5.465-.283-9.335 1.517-11.882a8.246 8.246 0 0 1 6.77-3.524c.203 0 .397.042.573.117.304-3.794.773-7.053 1.386-9.924Z" fill="rgba(255, 255, 255, 0)"/><g stroke="#000" stroke-width="3" stroke-linecap="round" stroke-linejoin="round"><path d="M186.418 102.234c2.238 0 8.261 2.671 6.343 13.766-.842 4.87-1.878 5.906-3.668 9.233-1.514 2.813-2.735 4.84-5.48 3.522M70.397 103.803c-3.813 0-8.954 3.22-6.948 13.797 2.154 11.351 5.56 14.377 7.83 13.699"/><path d="M82.16 74.404C74.975 84.818 70.366 93.918 72.66 131c3.213 51.899 21.394 74.456 32.204 85.161 13.18 13.049 39.297 18.138 55.713 0 17.334-19.153 19.857-41.718 22.084-79.161 1.478-24.861 9.352-52.816-5.5-67"/></g><g transform="translate(117 131)"><path d="M2 2.745c3.502 0 7.716 5.688 8.111 14.749.643 14.704-4.162 19.358 0 26.97 2.728 4.989 17.76 4.733 21.85-3.534 3.218-6.502-2.929-12.045-6.593-20.744C21.873 11.894 19.66 6.796 23.314 2" stroke="#000" stroke-width="3" stroke-linecap="round" stroke-linejoin="round"/></g><g transform="translate(63 147)"/><g transform="translate(100 194)"><path d="M19.5 9.991c-1.26 2.154.364 7.707 15.282 6.79 14.918-.917 19.07-8.996 14.51-8.804-6.2.262-10.649 4.193-20.131 2.073-3.36-.752-8.486-2.067-9.66-.059Z" stroke="#000" stroke-width="3" stroke-linecap="round" stroke-linejoin="round"/></g><g transform="translate(0 -34)"><g stroke="rgba(15, 169, 88, 1)" stroke-width="3" stroke-linecap="round" stroke-linejoin="round"><path d="M78.5 109c5.5-.833 12 1.5 29.5-11.5s25-15 31.5-16M70 111c6.5-8 11.5-3.5 29-16.5s26.5-15 33-16M119 101.5c3-2.5 5.435-3.885 13.5-8 8.065-4.115 12.46-6.538 15.5-7M125 103.5c5-1.5 7.5-4 13.565-7.615C144.629 92.269 150.96 88.96 154 88.5M138 104.5c5-1.5 7.5-4 13.565-7.615 6.064-3.616 3.395-2.924 6.435-3.385M131 70c-13.167 3.667-41.2 12.8-48 20"/><path d="M122.5 81c-13.167 3.667-42.7 12.3-49.5 19.5M113.5 99.5c16-11.5 23.5-16 30-17M153.5 91.5c6 6.333 22 19 38 19M132 73c4.833-.5 15.5-.7 19.5 2.5 5 4 23.5 15.5 31 15.5"/><path d="M129 78.844c5.838-.601 18.723-.842 23.554 3.008 6.04 4.812 28.387 18.648 37.446 18.648"/></g></g><g transform="translate(72 160)"/><g transform="translate(72 89)"><g stroke="#000" stroke-width="3" stroke-linecap="round" stroke-linejoin="round"><path d="M26.715 26.256c.904-2.448 4.142-7.291 9.866-7.074 5.725.217 8.306 3.403 8.881 4.969M71.172 24.602c.99-2.853 4.216-8.394 9.198-7.732 4.981.662 7.506 4.332 8.145 6.084M25 42.913c2.745-3.965 9.53-6.579 14.937-6.087 6.759.614 4.348 6.53 2.62 7.24-2.175.892-5.132-.83-3.288-3.288 1.475-1.966 2.847 0 2.474.814M72.607 38.611c1.741-1.74 6.452-5.161 11.368-4.916 6.145.308 7.778 3.266 5.934 5.417-1.843 2.15-4.513 2.458-4.513 0s2-2.56 2.788-.93"/></g></g></g></g></svg>