<svg xmlns:dc="http://purl.org/dc/elements/1.1/" xmlns:cc="http://creativecommons.org/ns#" xmlns:rdf="http://www.w3.org/1999/02/22-rdf-syntax-ns#" xmlns:svg="http://www.w3.org/2000/svg" xmlns="http://www.w3.org/2000/svg" viewBox="0 0 256 256" fill="none"><metadata><rdf:RDF><cc:Work><dc:format>image/svg+xml</dc:format><dc:type rdf:resource="http://purl.org/dc/dcmitype/StillImage"/><dc:title>Croodles - Doodle your face</dc:title><dc:creator><cc:Agent><dc:title>vijay verma</dc:title></cc:Agent></dc:creator><dc:source>https://www.figma.com/community/file/966199982810283152</dc:source><cc:license rdf:resource="https://creativecommons.org/licenses/by/4.0/"/></cc:Work><cc:License rdf:about="https://creativecommons.org/licenses/by/4.0/"><cc:permits rdf:resource="https://creativecommons.org/ns#Reproduction"/><cc:permits rdf:resource="https://creativecommons.org/ns#Distribution"/><cc:permits rdf:resource="https://creativecommons.org/ns#DerivativeWorks"/><cc:requires rdf:resource="https://creativecommons.org/ns#Notice"/><cc:requires rdf:resource="https://creativecommons.org/ns#Attribution"/></cc:License></rdf:RDF></metadata><mask id="avatarsRadiusMask"><rect width="256" height="256" rx="0" ry="0" x="0" y="0" fill="#fff"/></mask><g mask="url(#avatarsRadiusMask)"><g><g stroke="#000" stroke-width="3" stroke-linecap="round" stroke-linejoin="round"><path d="M174.753 105c11.376 21.844 19.288 64.991 13.488 72.291C174.969 194 108.979 199 85.851 184.156c-15.452-9.917-16.433-61.162-8.216-74.892M183.014 121.686c2.899-1.035 8.509-3.798 9.812 1.811 1.303 5.609 1.283 9.099 0 14.907-.699 3.164-2.337 4.11-4.304 4.11"/><path d="M72.163 124.338c-7.606-2.389-12.086 1.888-9.36 11.337 2.583 8.95 7.051 10.834 9.36 10.328"/></g><g transform="translate(112 122)"><path d="M13 43.803c3.666 0 8.537-1.535 9.228-5.918.602-3.812-5.617-3.21-7.322-7.523s-.893-17.67 0-23.362" stroke="#000" stroke-width="3" stroke-linecap="round" stroke-linejoin="round"/></g><g transform="translate(63 112)"><g stroke="#000" stroke-width="3" stroke-linecap="round" stroke-linejoin="round"><path d="M17.045 45.981s0 0 0 0M12 41.424s0 0 0 0M104.035 37.03s0 0 0 0M93.7 45.981s0 0 0 0M33.365 44.893s0 0 0 0M22.868 56.042s0 0 0 0M30.303 70.351s0 0 0 0M82.79 73.28s0 0 0 0M95.077 71.978s0 0 0 0M78.151 64.316s0 0 0 0M118.269 33s0 0 0 0M118.757 42.684s0 0 0 0M108.992 49.112h.001M102.075 63.841h.001M92.473 59.447s0 0 0 0M54.96 73.28s0 0 0 0M68.305 77.919s0 0 0 0M46.578 64.899s0 0 0 0M40.981 74.813s0 0 0 0M67.428 64.316s0 0 0 0M31.135 56.042s0 0 0 0"/></g></g><g transform="translate(98 168)"><path d="M54.7 2.055c-7.309 0-25.936-.671-38.7 2.673 0 10.66 12.607 20.135 23.232 17.264C49.857 19.12 56.18 7.072 54.7 2.055Z" stroke="#000" stroke-width="3" stroke-linecap="round" stroke-linejoin="round"/></g><g transform="translate(-3 -1)"><g stroke="rgba(15, 169, 88, 1)" stroke-width="3" stroke-linecap="round" stroke-linejoin="round"><path d="M74.316 94.294c-2.338-26.414-1.002-75.304 18.633-67.45 24.545 9.817 30.856 24.544 45.583 20.336 14.726-4.207 32.959-28.05 39.27-11.921s0 49.694-2.558 55.617"/><path d="M59.666 109.511c-2.91-.529-2.865-5.776-2.48-8.334 14.942-14.072 93.605-12.208 131.07-9.516 3.746 1.873 10.974 6.81 9.916 11.569-1.322 5.951-7.603 6.281-18.842 1.653-11.239-4.628-77.016 3.296-99.495 1.974-22.478-1.323-16.534 3.315-20.17 2.654Z"/></g></g><g transform="translate(68 149)"><path d="M63.256 24.108c-4.676-1.67-22.543 3.005-27.887 1.503-5.343-1.503-8.685-4.843-6.681-7.348 2.004-2.505 2.507-1.002 3.341 0 .668.802 1.532 1.518 2.877 1.238 2.038-.425 3.369-1.739 2.3-3.743-1.336-2.504-10.854-2.504-11.689 0-.835 2.505-1.837 10.688 7.347 12.691 9.184 2.004 29.056-3.673 30.392-2.838 1.336.834 13.54 2.14 22.892 1.64 9.351-.501 19.021-7.15 16.516-11.493-2.505-4.341-13.943-2.851-11.772-.347.757.607 2.601 1.527 3.919.348 1.646-1.475 4.482 1.225 0 5.331-3.294 3.018-24.042 6.035-29.53 3.018" stroke="#000" stroke-width="3" stroke-linecap="round" stroke-linejoin="round"/></g><g transform="translate(71 103)"><g stroke="#000" stroke-width="3" stroke-linecap="round" stroke-linejoin="round"><path d="M25.508 18.188c1.685-1.252 6.125-2.587 11.267-1.878 4.493.62 6.435 2.245 7.736 4.267M72.914 20.047c2.16-2.8 5.933-3.351 8.298-3.483 2.365-.132 5.04 0 7.165.683M4 20.632l13.684 8.495M48.232 32.957c5.142-3.297 17.622-3.304 20.454-1.835M96.88 28.803c2.544-1.323 10.581-8.782 13.124-10.613M18.146 29.718c-.34 3.702-.418 13.116 4.334 16.62 4.76 3.51 23.542-.341 25.255-.947 1.617-.573 1.665-7.8-.894-14.373-2.15-5.522-20.502-3.698-28.098-2.34"/><path d="M70.486 27.953c5.988-2.674 21.938-.9 24.97 0 3.79 1.126 4.147 10.342 3.802 13.717-.344 3.376-20.459 3.436-25.11 3.249-3.721-.15-4.915-11.643-4.053-16.518M33.43 32.3c-.401.247-1.13.963-.834 1.853.37 1.111 3.428 2.501 3.52.833.094-1.667-.462-2.316-1.203-1.575"/><path d="M81.613 31.205c-.617.556-1.668 1.797-.926 2.316.926.648 4.169 2.316 3.89 0-.222-1.853-1.08-1.699-1.482-1.39l-.833.741"/></g></g></g></g></svg>